<svg width="400" height="300" viewBox="0 0 400 300" fill="none" xmlns="http://www.w3.org/2000/svg">
  <defs>
    <linearGradient id="bg" x1="0%" y1="0%" x2="100%" y2="100%">
      <stop offset="0%" style="stop-color:#1e293b;stop-opacity:1" />
      <stop offset="100%" style="stop-color:#334155;stop-opacity:1" />
    </linearGradient>
    <linearGradient id="accent" x1="0%" y1="0%" x2="100%" y2="0%">
      <stop offset="0%" style="stop-color:#10b981;stop-opacity:1" />
      <stop offset="100%" style="stop-color:#22d3ee;stop-opacity:1" />
    </linearGradient>
  </defs>
  
  <!-- Background -->
  <rect width="400" height="300" fill="url(#bg)"/>
  
  <!-- Grid pattern -->
  <defs>
    <pattern id="grid" width="20" height="20" patternUnits="userSpaceOnUse">
      <path d="M 20 0 L 0 0 0 20" fill="none" stroke="#475569" stroke-width="0.5" opacity="0.3"/>
    </pattern>
  </defs>
  <rect width="400" height="300" fill="url(#grid)"/>
  
  <!-- Shield icon -->
  <g transform="translate(160, 100)">
    <path d="M40 10L70 25V55C70 75 40 85 40 85S10 75 10 55V25L40 10Z" fill="url(#accent)" opacity="0.8"/>
    <path d="M40 15L65 27V52C65 70 40 78 40 78S15 70 15 52V27L40 15Z" fill="none" stroke="#ffffff" stroke-width="1.5"/>
    <path d="M30 45L35 50L50 35" fill="none" stroke="#ffffff" stroke-width="2" stroke-linecap="round" stroke-linejoin="round"/>
  </g>
  
  <!-- Title -->
  <text x="200" y="200" font-family="Arial, sans-serif" font-size="16" font-weight="bold" fill="#f8fafc" text-anchor="middle">CyberSecure AI</text>
  <text x="200" y="220" font-family="Arial, sans-serif" font-size="12" fill="#94a3b8" text-anchor="middle">Security Resource</text>
  
  <!-- Decorative elements -->
  <circle cx="50" cy="50" r="3" fill="#10b981" opacity="0.6"/>
  <circle cx="350" cy="250" r="2" fill="#22d3ee" opacity="0.6"/>
  <circle cx="350" cy="50" r="2" fill="#10b981" opacity="0.4"/>
  <circle cx="50" cy="250" r="3" fill="#22d3ee" opacity="0.4"/>
</svg>